<svg width="40" height="40" viewBox="0 0 40 40" fill="none" xmlns="http://www.w3.org/2000/svg">
<path d="M18.1825 32.9379C18.1825 32.6964 18.1825 32.5033 18.1825 32.3021C18.1825 29.131 18.1906 25.9519 18.1825 22.7809C18.1825 21.8392 18.3677 22.0243 17.3777 21.8311C15.0437 21.3804 12.9994 20.3824 11.3495 18.652C7.95308 15.0866 8.27501 9.83105 12.0819 6.60366C13.6352 5.28373 15.4139 4.47889 17.4179 4.06843C17.8445 3.9799 18.1584 3.61772 18.1584 3.18311V2.93361C18.1584 2.41851 18.5769 2 19.092 2H20.8787C21.3938 2 21.8123 2.41851 21.8123 2.93361V3.16701C21.8123 3.60162 22.1182 3.9638 22.5447 4.05233C25.5548 4.70425 28.082 6.09661 29.7963 8.78476C30.408 9.75057 30.8024 10.7888 30.9311 11.9317C30.9955 12.479 30.5529 12.9619 29.9975 12.9619C29.1927 12.9619 28.404 12.9619 27.6152 12.9458C27.5267 12.9458 27.3738 12.7928 27.3577 12.6963C26.9633 9.89544 25.0317 8.61575 22.585 7.83506C22.416 7.77872 22.2389 7.75458 22.0618 7.72238C22.0136 7.71433 21.9572 7.72238 21.8606 7.73043V17.9116C21.8606 18.3462 22.1665 18.7245 22.593 18.8211C22.915 18.8935 23.2369 18.9579 23.5508 19.0464C25.7239 19.6179 27.583 20.7044 29.0478 22.4267C32.0418 25.968 31.5428 30.9821 27.8889 34.0727C26.2309 35.4731 24.3073 36.286 22.1826 36.6562C22.094 36.6723 22.0055 36.6884 21.917 36.7126C21.9009 36.7126 21.8928 36.7367 21.8284 36.793V37.7106C21.8284 38.2257 21.4099 38.6442 20.8948 38.6442H19.1242C18.6091 38.6442 18.1906 38.2257 18.1906 37.7106V37.4772C18.1906 37.0425 17.8848 36.6804 17.4582 36.5918C14.4481 35.9399 11.9209 34.5476 10.2066 31.8594C9.5869 30.8936 9.20057 29.8554 9.06375 28.7125C9.00741 28.1652 9.45007 27.6823 10.0054 27.6823C10.5446 27.6823 11.0758 27.6823 11.607 27.6823C12.1302 27.6823 12.6372 28.125 12.766 28.632C13.265 30.6361 14.7459 31.7709 16.6453 32.5435C17.0236 32.6964 17.434 32.785 17.8284 32.8976C17.9089 32.9298 18.0055 32.9218 18.1825 32.9379ZM18.1584 8.88939C18.1584 8.26162 17.5467 7.80286 16.9511 7.99603C15.2932 8.54331 13.933 9.45278 13.096 11.1107C12.4119 12.4548 12.4682 13.823 13.2328 15.1188C14.1181 16.6078 15.4059 17.485 16.9672 17.976C17.5548 18.1611 18.1503 17.6943 18.1503 17.0826L18.1584 8.88939ZM23.0598 32.6481C27.8084 31.0707 27.8808 24.2778 23.1242 22.7245C23.084 22.7084 23.0437 22.7004 23.0035 22.6843C22.4321 22.5072 21.8526 22.9579 21.8526 23.5535V31.787C21.8526 32.4228 22.4643 32.8493 23.0598 32.6481Z" fill="white"/>
</svg>
