<svg width="37" height="37" viewBox="0 0 37 37" fill="none" xmlns="http://www.w3.org/2000/svg">
<path d="M35.8001 18.0568C35.8001 27.6665 28.0098 35.4567 18.4001 35.4567C8.79037 35.4567 1.00014 27.6665 1.00014 18.0568C1.00014 8.44709 8.79037 0.656883 18.4001 0.656883C28.0098 0.656883 35.8001 8.44709 35.8001 18.0568Z" stroke="#404B5A" stroke-width="1.2"/>
<path d="M22.0085 19.0209L22.4086 16.2287H19.9074V14.4167C19.9074 13.6528 20.2568 12.9082 21.377 12.9082H22.5141V10.531C22.5141 10.531 21.4822 10.3423 20.4956 10.3423C18.4358 10.3423 17.0894 11.6797 17.0894 14.1006V16.2287H14.7998V19.0209H17.0894V25.7708H19.9074V19.0209H22.0085Z" fill="#404B5A"/>
</svg>
