<svg width="29" height="27" viewBox="0 0 29 27" fill="none" xmlns="http://www.w3.org/2000/svg">
<path d="M10.3429 25.6718C10.9918 25.6718 11.5178 25.1458 11.5178 24.497C11.5178 23.8481 10.9918 23.3221 10.3429 23.3221C9.69409 23.3221 9.16809 23.8481 9.16809 24.497C9.16809 25.1458 9.69409 25.6718 10.3429 25.6718Z" stroke="white" stroke-width="1.97374" stroke-linecap="round" stroke-linejoin="round"/>
<path d="M23.1723 25.6718C23.8211 25.6718 24.3471 25.1458 24.3471 24.497C24.3471 23.8481 23.8211 23.3221 23.1723 23.3221C22.5234 23.3221 21.9974 23.8481 21.9974 24.497C21.9974 25.1458 22.5234 25.6718 23.1723 25.6718Z" stroke="white" stroke-width="1.97374" stroke-linecap="round" stroke-linejoin="round"/>
<path d="M1.27313 1H5.97251L9.1211 16.7312C9.22853 17.2721 9.52279 17.7579 9.95235 18.1037C10.3819 18.4495 10.9194 18.6332 11.4708 18.6227H22.8903C23.4416 18.6332 23.9791 18.4495 24.4087 18.1037C24.8383 17.7579 25.1325 17.2721 25.24 16.7312L27.1197 6.87422H7.14736" stroke="white" stroke-width="1.97374" stroke-linecap="round" stroke-linejoin="round"/>
</svg>
