<svg width="15" height="16" viewBox="0 0 15 16" fill="none" xmlns="http://www.w3.org/2000/svg">
<path d="M3.16667 1L1 3.88889V14C1 14.3831 1.15218 14.7505 1.42307 15.0214C1.69395 15.2923 2.06135 15.4444 2.44444 15.4444H12.5556C12.9386 15.4444 13.306 15.2923 13.5769 15.0214C13.8478 14.7505 14 14.3831 14 14V3.88889L11.8333 1H3.16667Z" stroke="white" stroke-width="1.1" stroke-linecap="round" stroke-linejoin="round"/>
<path d="M1 3.88892H14" stroke="white" stroke-width="1.1" stroke-linecap="round" stroke-linejoin="round"/>
<path d="M10.3889 6.77783C10.3889 7.54401 10.0845 8.27881 9.54273 8.82059C9.00095 9.36236 8.26615 9.66672 7.49997 9.66672C6.73379 9.66672 5.99899 9.36236 5.45722 8.82059C4.91545 8.27881 4.61108 7.54401 4.61108 6.77783" stroke="white" stroke-width="1.1" stroke-linecap="round" stroke-linejoin="round"/>
</svg>
