<svg width="11" height="14" viewBox="0 0 11 14" fill="none" xmlns="http://www.w3.org/2000/svg">
<path d="M10.4183 5.90909C10.4183 9.72727 5.50919 13 5.50919 13C5.50919 13 0.600098 9.72727 0.600098 5.90909C0.600098 4.60712 1.1173 3.35847 2.03794 2.43784C2.95857 1.51721 4.20722 1 5.50919 1C6.81116 1 8.05981 1.51721 8.98044 2.43784C9.90107 3.35847 10.4183 4.60712 10.4183 5.90909Z" stroke="#404B5A" stroke-linecap="round" stroke-linejoin="round"/>
<path d="M5.50917 7.54551C6.41291 7.54551 7.14553 6.81288 7.14553 5.90915C7.14553 5.00541 6.41291 4.27278 5.50917 4.27278C4.60543 4.27278 3.8728 5.00541 3.8728 5.90915C3.8728 6.81288 4.60543 7.54551 5.50917 7.54551Z" stroke="#404B5A" stroke-linecap="round" stroke-linejoin="round"/>
</svg>
