<svg width="32" height="26" viewBox="0 0 32 26" fill="none" xmlns="http://www.w3.org/2000/svg">
<path d="M27.3127 1H3.92363C2.30895 1 1 2.41162 1 4.15293V19.9176C1 21.6589 2.30895 23.0705 3.92363 23.0705H27.3127C28.9273 23.0705 30.2363 21.6589 30.2363 19.9176V4.15293C30.2363 2.41162 28.9273 1 27.3127 1Z" stroke="white" stroke-width="1.97" stroke-linecap="round" stroke-linejoin="round"/>
<path d="M9.77078 24.6899H21.4653" stroke="white" stroke-width="1.97" stroke-linecap="round" stroke-linejoin="round"/>
<path d="M21.6371 18.1067V18.8911C21.6371 17.7648 21.32 16.6845 20.7556 15.8881C20.1912 15.0916 19.4257 14.6442 18.6275 14.6442H12.6082C11.81 14.6442 11.0445 15.0916 10.4801 15.8881C9.91569 16.6845 9.5986 17.7648 9.5986 18.8911V18.1067" stroke="white" stroke-width="1.97" stroke-linecap="round" stroke-linejoin="round"/>
<path d="M15.7669 11.1227C17.4701 11.1227 18.8509 9.80753 18.8509 8.18519C18.8509 6.56285 17.4701 5.24768 15.7669 5.24768C14.0637 5.24768 12.683 6.56285 12.683 8.18519C12.683 9.80753 14.0637 11.1227 15.7669 11.1227Z" stroke="white" stroke-width="1.97" stroke-linecap="round" stroke-linejoin="round"/>
</svg>
