<svg width="27" height="27" viewBox="0 0 27 27" fill="none" xmlns="http://www.w3.org/2000/svg">
<path d="M12.0353 3.6012H3.4523C2.80191 3.6012 2.17816 3.85956 1.71826 4.31946C1.25837 4.77935 1 5.4031 1 6.05349V23.2196C1 23.87 1.25837 24.4937 1.71826 24.9536C2.17816 25.4135 2.80191 25.6719 3.4523 25.6719H20.6184C21.2688 25.6719 21.8925 25.4135 22.3524 24.9536C22.8123 24.4937 23.0707 23.87 23.0707 23.2196V14.6365" stroke="white" stroke-width="1.97374" stroke-linecap="round" stroke-linejoin="round"/>
<path d="M21.2314 1.76195C21.7192 1.27416 22.3808 1.00012 23.0707 1.00012C23.7605 1.00012 24.4221 1.27416 24.9099 1.76195C25.3977 2.24975 25.6717 2.91133 25.6717 3.60118C25.6717 4.29102 25.3977 4.95261 24.9099 5.4404L13.2615 17.0888L8.35687 18.315L9.58302 13.4104L21.2314 1.76195Z" stroke="white" stroke-width="1.97374" stroke-linecap="round" stroke-linejoin="round"/>
</svg>
