<svg width="36" height="37" viewBox="0 0 36 37" fill="none" xmlns="http://www.w3.org/2000/svg">
<path d="M35.3999 18.0567C35.3999 27.6664 27.6097 35.4566 18 35.4566C8.39022 35.4566 0.599998 27.6664 0.599998 18.0567C0.599998 8.44697 8.39022 0.656761 18 0.656761C27.6097 0.656761 35.3999 8.44697 35.3999 18.0567Z" stroke="#404B5A" stroke-width="1.2"/>
<path d="M18.0043 14.101C15.8148 14.101 14.0486 15.8672 14.0486 18.0567C14.0486 20.2463 15.8148 22.0124 18.0043 22.0124C20.1939 22.0124 21.96 20.2463 21.96 18.0567C21.96 15.8672 20.1939 14.101 18.0043 14.101ZM18.0043 20.6284C16.5894 20.6284 15.4326 19.4751 15.4326 18.0567C15.4326 16.6383 16.5859 15.485 18.0043 15.485C19.4227 15.485 20.576 16.6383 20.576 18.0567C20.576 19.4751 19.4193 20.6284 18.0043 20.6284V20.6284ZM23.0445 13.9392C23.0445 14.4522 22.6313 14.8619 22.1218 14.8619C21.6089 14.8619 21.1992 14.4488 21.1992 13.9392C21.1992 13.4297 21.6123 13.0166 22.1218 13.0166C22.6313 13.0166 23.0445 13.4297 23.0445 13.9392ZM25.6644 14.8757C25.6059 13.6397 25.3235 12.5449 24.4181 11.643C23.5161 10.741 22.4213 10.4587 21.1854 10.3967C19.9116 10.3244 16.0936 10.3244 14.8198 10.3967C13.5873 10.4552 12.4925 10.7375 11.5871 11.6395C10.6817 12.5415 10.4028 13.6363 10.3408 14.8722C10.2685 16.146 10.2685 19.964 10.3408 21.2378C10.3994 22.4737 10.6817 23.5685 11.5871 24.4705C12.4925 25.3725 13.5839 25.6548 14.8198 25.7167C16.0936 25.789 19.9116 25.789 21.1854 25.7167C22.4213 25.6582 23.5161 25.3759 24.4181 24.4705C25.3201 23.5685 25.6024 22.4737 25.6644 21.2378C25.7367 19.964 25.7367 16.1495 25.6644 14.8757V14.8757ZM24.0188 22.6045C23.7502 23.2793 23.2304 23.7992 22.5522 24.0711C21.5366 24.4739 19.1267 24.381 18.0043 24.381C16.882 24.381 14.4687 24.4705 13.4565 24.0711C12.7817 23.8026 12.2619 23.2828 11.9899 22.6045C11.5871 21.5889 11.6801 19.179 11.6801 18.0567C11.6801 16.9344 11.5906 14.5211 11.9899 13.5089C12.2584 12.8341 12.7783 12.3143 13.4565 12.0423C14.4721 11.6395 16.882 11.7325 18.0043 11.7325C19.1267 11.7325 21.54 11.643 22.5522 12.0423C23.2269 12.3108 23.7468 12.8307 24.0188 13.5089C24.4216 14.5245 24.3286 16.9344 24.3286 18.0567C24.3286 19.179 24.4216 21.5924 24.0188 22.6045Z" fill="#404B5A"/>
</svg>
