<svg width="30" height="30" viewBox="0 0 30 30" fill="none" xmlns="http://www.w3.org/2000/svg">
<circle cx="15" cy="15" r="14.5" stroke="white"/>
<path d="M21.9251 11.5647C21.7615 10.9488 21.2796 10.4637 20.6677 10.2991C19.5585 10 15.1111 10 15.1111 10C15.1111 10 10.6637 10 9.55458 10.2991C8.94268 10.4638 8.46076 10.9488 8.29719 11.5647C8 12.681 8 15.0101 8 15.0101C8 15.0101 8 17.3392 8.29719 18.4555C8.46076 19.0714 8.94268 19.5363 9.55458 19.7009C10.6637 20 15.1111 20 15.1111 20C15.1111 20 19.5585 20 20.6677 19.7009C21.2796 19.5363 21.7615 19.0714 21.9251 18.4555C22.2222 17.3392 22.2222 15.0101 22.2222 15.0101C22.2222 15.0101 22.2222 12.681 21.9251 11.5647ZM13.6566 17.1248V12.8954L17.3737 15.0102L13.6566 17.1248Z" fill="white"/>
</svg>
