<svg xmlns="http://www.w3.org/2000/svg" fill="none" viewBox="0 0 44 40" height="40" width="44">
<g clip-path="url(#clip0_2097_790)">
<path fill="white" d="M4.58919 13.7389V18.1107V27.6598C4.58919 28.4651 3.93085 29.1235 3.1255 29.1235H1.60428C0.722241 29.1235 0 28.4972 0 27.7237V13.7389C0 12.9655 0.722241 12.3391 1.60428 12.3391H2.97848C3.86693 12.3391 4.58919 12.9655 4.58919 13.7389Z"></path>
<path fill="white" d="M7.65033 30.402H9.56783C9.84905 30.402 10.0472 30.6704 9.97048 30.9388L8.91587 34.5437C8.86473 34.7226 8.69855 34.844 8.51319 34.844H7.65671C7.42661 34.844 7.23486 34.6587 7.23486 34.4222V30.8174C7.23486 30.5873 7.42023 30.3955 7.65671 30.3955L7.65033 30.402Z"></path>
<path fill="white" d="M5.86725 14.7614V7.51329C5.86725 5.78755 7.2798 4.375 9.00555 4.375H18.2287C19.9544 4.375 21.367 5.78755 21.367 7.51329V14.7614C21.367 16.2506 20.1653 17.4587 18.6824 17.4778H8.55812C7.07526 17.4587 5.87364 16.2506 5.87364 14.7614H5.86725Z"></path>
<path fill="white" d="M34.4254 30.4016H36.3429C36.573 30.4016 36.7648 30.587 36.7648 30.8235V34.4283C36.7648 34.6583 36.5793 34.8501 36.3429 34.8501H35.4864C35.3011 34.8501 35.1349 34.7287 35.0837 34.5497L34.0291 30.9449C33.9524 30.6763 34.1505 30.4079 34.4318 30.4079L34.4254 30.4016Z"></path>
<path fill="white" d="M22.6391 14.7614V7.51329C22.6391 5.78755 24.0518 4.375 25.7774 4.375H35.0006C36.7262 4.375 38.1389 5.78755 38.1389 7.51329V14.7614C38.1389 16.2506 36.9373 17.4587 35.4544 17.4778H25.33C23.8472 17.4587 22.6456 16.2506 22.6456 14.7614H22.6391Z"></path>
<path fill="white" d="M38.1327 28.0815C38.1327 28.2732 38.1582 28.4522 38.2029 28.6248C38.2669 28.8804 38.0559 29.1233 37.7939 29.1233H6.21924C5.95718 29.1233 5.73987 28.8804 5.81019 28.6248C5.85492 28.4522 5.88048 28.2668 5.88048 28.0815V19.178C5.88048 18.9478 6.06584 18.7561 6.30233 18.7561H37.7301C37.9601 18.7561 38.1519 18.9415 38.1519 19.178V28.0815H38.1327Z"></path>
<path fill="white" d="M44.0003 13.7389V27.7237C44.0003 28.4972 43.278 29.1235 42.3959 29.1235H40.8684C40.0631 29.1235 39.4111 28.4716 39.4111 27.6662V18.1171V13.7389C39.4111 12.9655 40.1334 12.3391 41.0217 12.3391H42.3959C43.278 12.3391 44.0003 12.9655 44.0003 13.7389Z"></path>
</g>
<defs>
<clipPath id="clip0_2097_790">
<rect transform="translate(0 3)" fill="white" height="33" width="44"></rect>
</clipPath>
</defs>
</svg>
