<?xml version="1.0" encoding="utf-8"?>
<!-- Generator: Adobe Illustrator 26.0.1, SVG Export Plug-In . SVG Version: 6.00 Build 0)  -->
<svg version="1.1" id="Capa_1" xmlns="http://www.w3.org/2000/svg" xmlns:xlink="http://www.w3.org/1999/xlink" x="0px" y="0px"
	 viewBox="0 0 166.4 33" style="enable-background:new 0 0 166.4 33;" xml:space="preserve">
<style type="text/css">
	.st0{fill:#ED1D24;}
</style>
<path class="st0" d="M52.1,9.5c0-6.8-7.1-9.2-13.1-9.2c-4.3,0-14.2,1-14.8,10.4c0,0.2,0.1,0.4,0.2,0.6c0.1,0.1,0.3,0.2,0.5,0.2h7.2
	c0.4,0,0.7-0.3,0.7-0.6c0.3-3.3,3.3-4,5.8-4c3.6,0,5.4,1.1,5.4,3.3c0,2.3-1.7,2.6-5.3,3c-0.9,0.1-1.9,0.2-2.9,0.4
	c-4.4,0.5-12.6,1.4-12.6,9.9c0,6.1,5.8,9.3,11.5,9.3c3.2,0,7.5-0.9,10.4-3.5c2.2-2,4.8-2.7,6.6-2.7c0.2,0,0.3-0.1,0.4-0.2
	c0.1-0.1,0.1-0.3,0.1-0.4c-0.1-0.2-0.1-0.5-0.1-0.9V9.5L52.1,9.5z M37,26.1c-3.2,0-5-1.1-5.3-3.1c-0.4-2.7,2.4-3.7,4.7-4.1
	c0.7-0.1,1.5-0.2,2.3-0.3h0.1c1.7-0.2,3.3-0.4,4.7-1v3.6C43.6,24.8,39.6,26.1,37,26.1z M21.2,1.2v16.3c0,6.9-1.6,14.8-14.1,14.8H1.2
	c-0.3,0-0.5-0.2-0.5-0.5v-6.8c0-0.3,0.2-0.5,0.5-0.5h6.4c4.2,0,5-2.5,5-7.1V1.2c0-0.4,0.3-0.7,0.7-0.7h7.1
	C20.8,0.5,21.2,0.8,21.2,1.2z M101.4,10.3v21.3c0,0.4-0.3,0.7-0.7,0.7h-7.2c-0.4,0-0.7-0.3-0.7-0.7V12.3c0-1.5-0.4-5.5-5-5.5
	c-4.3,0-4.8,3.6-4.8,5.5v19.2c0,0.4-0.3,0.7-0.7,0.7h-7.1c-0.4,0-0.7-0.3-0.7-0.7V12.3c0-2-0.5-5.5-4.8-5.5c-4.7,0-5,4-5,5.5v19.2
	c0,0.4-0.3,0.7-0.7,0.7h-7.2c-0.4,0-0.7-0.3-0.7-0.7V10.3c-0.1-6.5,5.5-10,13.5-10c3.7,0,5.7,1,7.2,1.7c0.8,0.4,1.3,0.7,1.9,0.7
	c0.6,0,1.1-0.3,1.9-0.7C82,1.3,84,0.3,87.7,0.3C95.8,0.3,101.4,3.8,101.4,10.3z M132.6,9.5c0-6.8-7.1-9.2-13.1-9.2
	c-4.3,0-14.2,1-14.8,10.4c0,0.2,0,0.4,0.2,0.6c0.1,0.1,0.3,0.2,0.5,0.2h7.2c0.4,0,0.7-0.3,0.7-0.6c0.3-3.3,3.3-4,5.8-4
	c3.6,0,5.4,1.1,5.4,3.3c0,2.3-1.7,2.6-5.3,3c-0.9,0.1-1.9,0.2-2.9,0.4c-4.4,0.5-12.6,1.4-12.6,9.9c0,6.1,5.8,9.3,11.5,9.3
	c3.2,0,7.5-0.9,10.4-3.5c2.2-2,4.8-2.7,6.6-2.7c0.2,0,0.3-0.1,0.4-0.2c0.1-0.1,0.1-0.3,0.1-0.4c0-0.2-0.1-0.5-0.1-0.9V9.5L132.6,9.5
	z M117.5,26.1c-3.2,0-5-1.1-5.3-3.1c-0.4-2.7,2.4-3.7,4.7-4.1c0.7-0.1,1.5-0.2,2.3-0.3h0.1c1.7-0.2,3.3-0.4,4.7-1v3.6
	C124.1,24.8,120.2,26.1,117.5,26.1z M156.8,1v6.8c0,0.3-0.2,0.5-0.5,0.5h-6.4c-4.2,0-5,2.5-5,7.2v16.2c0,0.4-0.3,0.7-0.7,0.7h-7.1
	c-0.4,0-0.7-0.3-0.7-0.7V15.3c0-6.9,1.6-14.8,14.1-14.8h5.9C156.6,0.5,156.8,0.7,156.8,1z M162.9,4.8c0.6-0.1,1-0.5,1-1.1
	c0-0.8-0.5-1.2-1.3-1.2h-1.5v4h0.4V4.8h0.8l1.2,1.8h0.6L162.9,4.8z M161.5,3h1c0.6,0,0.9,0.2,0.9,0.7c0,0.5-0.3,0.7-0.9,0.7h-1V3z
	 M162.3,1.1c-1.9,0-3.4,1.5-3.4,3.4c0,1.9,1.5,3.4,3.4,3.4c1.9,0,3.4-1.5,3.4-3.4C165.7,2.6,164.1,1.1,162.3,1.1z M162.3,7.4
	c-1.6,0-2.9-1.3-2.9-2.9c0-1.6,1.3-2.9,2.9-2.9c1.6,0,2.9,1.3,2.9,2.9C165.1,6.1,163.9,7.4,162.3,7.4z"/>
</svg>
